:FULLY-SPECIFIED
:FORCE-ALL-JOINTS-BE-3DOF
:DEGREES
1053
root 1.20613 15.1596 32.5519 4.89584 -3.39907 363.451
lfemur 8.80543 0.464651 5.67678
ltibia -0.0274852 0 0
lfoot -30.3693 -11.1988 0
ltoes -34.2342 0 0
rfemur -31.0566 -15.6553 -6.30892
rtibia 50.0161 0 0
rfoot -21.8557 5.41142 0
rtoes -40.9461 0 0
lowerback -1.82866 -0.0540339 -0.247978
upperback -0.482745 -0.0342183 -6.04407
thorax 0.526436 -0.0187312 -6.12588
lowerneck -7.00878 0.740732 6.55384
upperneck 1.2838 0.301953 3.66874
head 1.59363 0.277463 0.0547003
lclavicle -3.74852e-15 3.8519e-14 0
lhumerus -58.7099 -46.8663 115.407
lradius 55.8075 0 0
lwrist 25.5264 0 0
lhand 37.4284 25.3113 0
lfingers 7.12502 0 0
lthumb 60.2314 38.8463 0
rclavicle -3.74852e-15 3.8519e-14 0
rhumerus 2.12993 -23.5147 0.626951
rradius 27.4891 0 0
rwrist -9.73048 0 0
rhand -30.5146 -42.0224 0
rfingers 7.12502 0 0
rthumb -3.81443 -791.968 0
1054
root 1.20768 15.16 32.5565 4.89467 -3.38372 363.436
lfemur 8.82966 0.450787 5.68911
ltibia -0.0494733 0 0
lfoot -30.3706 -11.1828 0
ltoes -34.2573 0 0
rfemur -31.0156 -15.6366 -6.30826
rtibia 49.9986 0 0
rfoot -21.8507 5.39108 0
rtoes -40.9327 0 0
lowerback -1.84302 -0.0538859 -0.253363
upperback -0.480066 -0.033242 -6.03777
thorax 0.537378 -0.0180504 -6.11612
lowerneck -7.02988 0.725753 6.53819
upperneck 1.30917 0.279673 3.68385
head 1.60525 0.267774 0.0613596
lclavicle -2.4483e-15 2.97655e-14 0
lhumerus -58.7092 -46.8907 115.416
lradius 55.8112 0 0
lwrist 25.5441 0 0
lhand 37.4377 25.3022 0
lfingers 7.12502 0 0
lthumb 60.2394 38.8287 0
rclavicle -2.4483e-15 2.97655e-14 0
rhumerus 2.09753 -23.5031 0.644014
rradius 27.4868 0 0
rwrist -9.70782 0 0
rhand -30.5151 -41.9979 0
rfingers 7.12502 0 0
rthumb -3.8149 -791.944 0
1055
root 1.20926 15.1605 32.561 4.89341 -3.36901 363.421
lfemur 8.8517 0.437594 5.70059
ltibia -0.0659645 0 0
lfoot -30.3751 -11.1654 0
ltoes -34.2802 0 0
rfemur -30.9747 -15.6219 -6.30707
rtibia 49.9804 0 0
rfoot -21.8473 5.37515 0
rtoes -40.92 0 0
lowerback -1.85712 -0.0535592 -0.258283
upperback -0.477277 -0.0320408 -6.0308
thorax 0.548307 -0.0172552 -6.10592
lowerneck -7.05171 0.710748 6.52064
upperneck 1.33448 0.257456 3.69906
head 1.61698 0.258112 0.0683726
lclavicle -1.09129e-15 1.97602e-14 0
lhumerus -58.707 -46.9156 115.424
lradius 55.8149 0 0
lwrist 25.5654 0 0
lhand 37.447 25.2926 0
lfingers 7.12502 0 0
lthumb 60.2473 38.8106 0
rclavicle -1.09129e-15 1.97602e-14 0
rhumerus 2.06682 -23.495 0.66097
rradius 27.4839 0 0
rwrist -9.6838 0 0
rhand -30.5184 -41.9773 0
rfingers 7.12502 0 0
rthumb -3.81809 -791.923 0
1056
root 1.21088 15.161 32.5656 4.89271 -3.35661 363.407
lfemur 8.86728 0.427013 5.70931
ltibia -0.068713 0 0
lfoot -30.3862 -11.1467 0
ltoes -34.3014 0 0
rfemur -30.9356 -15.6093 -6.30559
rtibia 49.9618 0 0
rfoot -21.8448 5.36355 0
rtoes -40.9077 0 0
lowerback -1.87068 -0.0531145 -0.26323
upperback -0.474818 -0.0307239 -6.0232
thorax 0.55861 -0.0164164 -6.09502
lowerneck -7.07176 0.696934 6.5029
upperneck 1.3566 0.237207 3.71296
head 1.62738 0.249264 0.0750661
lclavicle 2.19064e-16 9.64366e-15 0
lhumerus -58.7017 -46.9363 115.431
lradius 55.8177 0 0
lwrist 25.5867 0 0
lhand 37.4561 25.2843 0
lfingers 7.12502 0 0
lthumb 60.255 38.794 0
rclavicle 2.19064e-16 9.64366e-15 0
rhumerus 2.03903 -23.4877 0.677143
rradius 27.4814 0 0
rwrist -9.65915 0 0
rhand -30.5239 -41.9599 0
rfingers 7.12502 0 0
rthumb -3.82341 -791.906 0
